<svg xmlns="http://www.w3.org/2000/svg" width="171.234" height="35.771" viewBox="0 0 171.234 35.771">
  <g id="logo" transform="translate(-597 -37)">
    <path id="Path_147" data-name="Path 147" d="M325.556,179.811a1.587,1.587,0,0,0,1.576-1.6V176.6a6.654,6.654,0,0,0,3.444-1.081,4.055,4.055,0,0,0,1.514-3.474,3.775,3.775,0,0,0-.535-2.106,4.184,4.184,0,0,0-1.395-1.321,6.727,6.727,0,0,0-1.939-.749q-1.065-.241-2.152-.375-.83-.089-1.654-.224a5.281,5.281,0,0,1-1.053-.272,1.151,1.151,0,0,1-.555-.393,1.041,1.041,0,0,1-.157-.59,1.01,1.01,0,0,1,.618-.974,5.1,5.1,0,0,1,2.061-.3,6.015,6.015,0,0,1,2.65.561,3.745,3.745,0,0,1,.868.563l.241.213c.2.223.743.036,1.212-.415l.531-.512a1.066,1.066,0,0,0,.053-1.508,1.028,1.028,0,0,0-.095-.089,6.906,6.906,0,0,0-1.722-1.032,8.017,8.017,0,0,0-1.938-.5V160.6a1.577,1.577,0,1,0-3.154,0v1.351a9.354,9.354,0,0,0-1.254.213,5.7,5.7,0,0,0-1.893.814,3.779,3.779,0,0,0-1.22,1.377,4.216,4.216,0,0,0-.434,1.977,3.706,3.706,0,0,0,.563,2.144,4.185,4.185,0,0,0,1.451,1.3,7.071,7.071,0,0,0,1.968.712q1.081.226,2.116.375.941.13,1.569.244a4.9,4.9,0,0,1,1.009.272,1.074,1.074,0,0,1,.526.4,1.168,1.168,0,0,1,.148.618,1.062,1.062,0,0,1-.629,1.011,5.072,5.072,0,0,1-2.125.318,6.65,6.65,0,0,1-2.817-.543,4.363,4.363,0,0,1-1.05-.613,1.31,1.31,0,0,0-1.74-.017l-.627.568a1.075,1.075,0,0,0-.074,1.58l.461.337a7.25,7.25,0,0,0,1.57.861,10.732,10.732,0,0,0,2.482.635v1.676a1.588,1.588,0,0,0,1.578,1.6" transform="translate(286.92 -115.521)" fill="#2fffc8" fill-rule="evenodd"/>
    <path id="Path_148" data-name="Path 148" d="M341.794,163.786a15.241,15.241,0,1,0-24.827,16.655l5.061,5.043a1.75,1.75,0,0,0,2.464,0,1.731,1.731,0,0,0,.005-2.449l-.005-.006-5.062-5.043c-.2-.2-.389-.4-.573-.614a1.2,1.2,0,0,0-.183-.3,13.825,13.825,0,0,1-1.734-2.742,11.539,11.539,0,0,1-.954-4.63,11.761,11.761,0,1,1,22.569,4.63,13.825,13.825,0,0,1-1.734,2.742c-.416.5-1.136,1.291-1.6,1.75l-8.689,8.658a1.184,1.184,0,0,0,0,1.675l.783.78a1.2,1.2,0,0,0,1.681,0l8.689-8.657c.181-.181.4-.415.631-.661a1.669,1.669,0,0,0,.209-.176,15.134,15.134,0,0,0,3.267-16.654" transform="translate(284.505 -117.51)" fill="#2fffc8" fill-rule="evenodd"/>
    <g id="Group_39" data-name="Group 39" transform="translate(633.527 44.242)">
      <path id="Path_149" data-name="Path 149" d="M379.041,163.6a6.363,6.363,0,0,1,4.522,1.925l2.314-2.459a9.65,9.65,0,0,0-6.81-2.674,9.626,9.626,0,1,0,.053,19.246,9.767,9.767,0,0,0,7.821-3.582l-2.473-2.218a6.5,6.5,0,0,1-5.267,2.593,6.417,6.417,0,0,1-.161-12.831Zm17.273,2.646a7.191,7.191,0,0,0-1.171-.106,4.816,4.816,0,0,0-3.75,1.578v-1.309h-3.325V179.37h3.459v-8.154a3.824,3.824,0,0,1,3.138-1.871,4.775,4.775,0,0,1,1.251.135Zm10.278,9.09a4.559,4.559,0,0,1-3.245,1.5,3.394,3.394,0,0,1-3.486-3.075H408.8a5.7,5.7,0,0,0,.08-.988c0-3.609-2.528-6.629-6.093-6.629-3.829,0-6.277,3.154-6.277,6.763a6.467,6.467,0,0,0,6.756,6.736,6.981,6.981,0,0,0,5.293-2.326Zm-6.571-4.117a2.805,2.805,0,0,1,2.768-2.272,2.579,2.579,0,0,1,2.554,2.272Zm19.718,3.609a3.773,3.773,0,0,1-3.111,1.6,3.547,3.547,0,0,1-.08-7.084,3.958,3.958,0,0,1,3.192,1.6Zm3.458,4.544V160.394H419.74v6.949a5.7,5.7,0,0,0-3.643-1.2,6.492,6.492,0,0,0-6.331,6.763,6.982,6.982,0,0,0,1.649,4.545,6.476,6.476,0,0,0,4.868,2.191,5.377,5.377,0,0,0,3.591-1.309v1.042H423.2Zm2.16,0h3.459V166.407h-3.459Zm-.531-17.562a2.261,2.261,0,1,0,2.261-2.218,2.22,2.22,0,0,0-2.261,2.218m9.578,9.143a3.962,3.962,0,0,1,3.191-1.6,3.547,3.547,0,0,1-.079,7.084,3.77,3.77,0,0,1-3.112-1.6Zm-.134,8.42v-1.042a5.379,5.379,0,0,0,3.591,1.309,6.478,6.478,0,0,0,4.868-2.191,6.974,6.974,0,0,0,1.65-4.545,6.494,6.494,0,0,0-6.331-6.763,5.7,5.7,0,0,0-3.644,1.2v-6.951h-3.459v18.98h3.325Zm11.677,0h3.459V160.394h-3.459v18.978Zm15.641-4.035a4.559,4.559,0,0,1-3.246,1.5,3.393,3.393,0,0,1-3.484-3.075H463.8a5.706,5.706,0,0,0,.08-.988c0-3.609-2.528-6.629-6.091-6.629-3.831,0-6.277,3.154-6.277,6.763a6.467,6.467,0,0,0,6.756,6.736,6.981,6.981,0,0,0,5.293-2.326Zm-6.571-4.117a2.8,2.8,0,0,1,2.766-2.272,2.578,2.578,0,0,1,2.554,2.272Z" transform="translate(-329.17 -159.59)" fill="#2fffc8" fill-rule="evenodd"/>
      <path id="Path_150" data-name="Path 150" d="M338.332,160.373v3.173h4.923v15.342h3.591V163.545h4.923v-3.172Zm20.849,14.018a3.787,3.787,0,0,1-3.114,1.587,3.508,3.508,0,0,1-.079-7.009,3.982,3.982,0,0,1,3.193,1.587Zm3.458-8.331h-3.326v1.032a5.928,5.928,0,0,0-3.777-1.3,6.456,6.456,0,0,0-6.334,6.692,6.862,6.862,0,0,0,1.65,4.5,6.507,6.507,0,0,0,4.869,2.17,5.42,5.42,0,0,0,3.592-1.3v1.031h3.326Zm5.582,0h-3.964l4.337,5.977-4.949,6.851h4.1l3.033-4.339,3.033,4.339h4.1l-4.949-6.851,4.337-5.977h-3.964l-2.554,3.65Z" transform="translate(-338.332 -159.358)" fill="#1c807f" fill-rule="evenodd"/>
    </g>
  </g>
</svg>
